:SAMPLES-PER-SECOND 30
:FULLY-SPECIFIED
:DEGREES
453
root  -1.16701 39.7031 15.23 -173.545 -3.27411 179.659
RightUpLeg  -17.7355 3.50039 -7.60333
RightLeg  14.1936 -0.178513 -1.60688
RightFoot  -1.47222 -0.533032 6.05088
RightToes  -5.8209e-011 0 -3.6325e-017
Spine  30.978 -0.568528 6.36366
Spine1  8.98177 -0.140939 5.07166
HEad  12.508 -8.11964 -1.59816
LeftShoulder1  7.00289 -16.5525 -28.8314
LeftArm  3.18085 -35.2334 -70.8783
LeftForeArm  47.2012 6.42605 -5.74832
LeftHand  -0.246645 0.021 5.37786
RightShoulder  9.20368 17.0718 38.6224
RightArm  10.2711 28.7907 48.6777
RightForeArm  -10.0796 15.8353 9.27539
RightHand  -0.24729 -0.0210522 -5.37781
LeftUpLeg  -18.125 11.9442 6.13332
LeftLeg  12.0814 -4.22839 -2.50228
LeftFoot  1.43248 0.740139 -6.68633
LeftToes  -7.45818e-011 -3.37383e-011 1.08613e-011
454
root  -1.35575 39.6873 15.2606 -173.564 -3.08037 179.699
RightUpLeg  -17.7305 3.25447 -7.8266
RightLeg  14.0526 0.198854 -1.51515
RightFoot  -1.37876 -0.555058 6.2532
RightToes  -5.8209e-011 0 -3.6325e-017
Spine  31.3327 -0.371785 6.7295
Spine1  8.49419 0.203501 5.19525
HEad  12.6296 -8.59109 -1.40201
LeftShoulder1  6.99263 -16.59 -28.7117
LeftArm  2.05017 -35.3515 -70.8481
LeftForeArm  50.2697 6.20314 -4.89102
LeftHand  -0.246645 0.021 5.37786
RightShoulder  9.22965 17.1028 38.6784
RightArm  9.38937 29.606 48.899
RightForeArm  -6.85793 14.4855 9.93822
RightHand  -0.24729 -0.0210522 -5.37781
LeftUpLeg  -18.393 12.0201 5.79443
LeftLeg  12.6375 -4.15045 -2.36952
LeftFoot  1.19076 0.713208 -6.55796
LeftToes  -7.45818e-011 -3.37383e-011 1.08613e-011
455
root  -1.47302 39.6883 15.2741 -173.637 -2.86366 179.811
RightUpLeg  -17.5616 2.80311 -7.78557
RightLeg  13.7223 0.825325 -1.41815
RightFoot  -1.20091 -0.5754 6.38565
RightToes  -5.8209e-011 0 -3.6325e-017
Spine  31.63 -0.179319 7.17306
Spine1  8.20094 0.614892 5.10027
HEad  12.7922 -9.02341 -1.21662
LeftShoulder1  7.01558 -16.6343 -28.7496
LeftArm  1.04605 -35.2872 -70.6269
LeftForeArm  52.3929 6.03663 -4.24898
LeftHand  -0.246645 0.021 5.37786
RightShoulder  9.22231 17.1237 38.6003
RightArm  7.32617 30.2594 49.3357
RightForeArm  -3.77729 12.6331 10.7189
RightHand  -0.24729 -0.0210522 -5.37781
LeftUpLeg  -18.4255 12.1563 5.72214
LeftLeg  12.9114 -4.11798 -2.3372
LeftFoot  1.02754 0.695574 -6.47344
LeftToes  -7.45818e-011 -3.37383e-011 1.08613e-011
456
root  -1.51965 39.698 15.2759 -173.674 -2.74063 179.877
RightUpLeg  -17.4065 2.27618 -7.68041
RightLeg  13.4242 1.43071 -1.32154
RightFoot  -1.05451 -0.586233 6.42539
RightToes  -5.8209e-011 0 -3.6325e-017
Spine  31.8213 -0.0469288 7.54146
Spine1  8.075 0.966308 4.82693
HEad  12.8589 -9.47403 -0.998958
LeftShoulder1  7.03731 -16.6753 -28.7869
LeftArm  0.565494 -35.3135 -70.4396
LeftForeArm  53.9583 5.93911 -3.93983
LeftHand  -0.246645 0.021 5.37786
RightShoulder  9.19075 17.1249 38.4517
RightArm  5.12893 30.5726 49.829
RightForeArm  -2.01804 10.9985 11.2528
RightHand  -0.24729 -0.0210522 -5.37781
LeftUpLeg  -18.3661 12.2364 5.74684
LeftLeg  12.9187 -4.08968 -2.36278
LeftFoot  0.993838 0.683507 -6.37802
LeftToes  -7.45818e-011 -3.37383e-011 1.08613e-011
457
root  -1.50564 39.7059 15.2738 -173.632 -2.73561 179.88
RightUpLeg  -17.3844 1.79088 -7.57599
RightLeg  13.2886 1.86527 -1.23803
RightFoot  -0.992684 -0.583249 6.35863
RightToes  -5.8209e-011 0 -3.6325e-017
Spine  31.93 -0.0139751 7.75592
Spine1  8.02793 1.16064 4.48022
HEad  12.8265 -9.97038 -0.733206
LeftShoulder1  7.04226 -16.7051 -28.7588
LeftArm  0.452366 -35.3824 -70.3952
LeftForeArm  54.554 5.90844 -3.86364
LeftHand  -0.246645 0.021 5.37786
RightShoulder  9.17151 17.1167 38.3794
RightArm  3.77623 30.5947 50.1963
RightForeArm  -1.5723 10.1042 11.4591
RightHand  -0.24729 -0.0210522 -5.37781
LeftUpLeg  -18.3415 12.1584 5.77978
LeftLeg  12.777 -3.98059 -2.33159
LeftFoot  1.08719 0.688997 -6.38509
LeftToes  -7.45818e-011 -3.37383e-011 1.08613e-011
458
root  -1.44102 39.7113 15.2708 -173.555 -2.78404 179.883
RightUpLeg  -17.4425 1.33673 -7.41121
RightLeg  13.2526 2.2317 -1.14636
RightFoot  -0.971729 -0.572105 6.22326
RightToes  -5.8209e-011 0 -3.6325e-017
Spine  31.9985 -0.0388785 7.79228
Spine1  8.03747 1.20409 4.21342
HEad  12.7321 -10.3542 -0.525164
LeftShoulder1  7.04805 -16.7246 -28.7535
LeftArm  0.394877 -35.4128 -70.5308
LeftForeArm  53.9197 5.92897 -3.87251
LeftHand  -0.246645 0.021 5.37786
RightShoulder  9.17529 17.115 38.3992
RightArm  3.13848 30.5757 50.2674
RightForeArm  -1.59504 9.71983 11.531
RightHand  -0.24729 -0.0210522 -5.37781
LeftUpLeg  -18.3565 11.9347 5.86605
LeftLeg  12.6104 -3.76891 -2.21095
LeftFoot  1.20424 0.708632 -6.50993
LeftToes  -7.45818e-011 -3.37383e-011 1.08613e-011
459
root  -1.33013 39.7162 15.2704 -173.498 -2.83481 179.91
RightUpLeg  -17.5166 0.932751 -7.16474
RightLeg  13.2684 2.56251 -1.03243
RightFoot  -0.960836 -0.557727 6.06075
RightToes  -5.8209e-011 0 -3.6325e-017
Spine  32.0928 -0.068215 7.68473
Spine1  8.09891 1.17878 4.02727
HEad  12.5397 -10.496 -0.391928
LeftShoulder1  7.0611 -16.7491 -28.776
LeftArm  0.327776 -35.496 -70.8787
LeftForeArm  52.8342 5.9642 -3.89082
LeftHand  -0.246645 0.021 5.37786
RightShoulder  9.17879 17.1293 38.3857
RightArm  2.56718 30.7727 50.068
RightForeArm  -1.21973 9.23372 11.6469
RightHand  -0.24729 -0.0210522 -5.37781
LeftUpLeg  -18.372 11.6873 6.04822
LeftLeg  12.4672 -3.54596 -2.06622
LeftFoot  1.30129 0.728456 -6.64348
LeftToes  -7.45818e-011 -3.37383e-011 1.08613e-011
460
root  -1.17905 39.7177 15.2789 -173.47 -2.89555 179.944
RightUpLeg  -17.6251 0.641171 -6.87792
RightLeg  13.384 2.75711 -0.916208
RightFoot  -0.972332 -0.539739 5.8694
RightToes  -5.8209e-011 0 -3.6325e-017
Spine  32.28 -0.124192 7.531
Spine1  8.17878 1.13773 3.75878
HEad  12.246 -10.4753 -0.213397
LeftShoulder1  7.06662 -16.8009 -28.7121
LeftArm  0.3124 -35.7001 -71.362
LeftForeArm  52.1841 5.98313 -3.89108
LeftHand  -0.246645 0.021 5.37786
RightShoulder  9.16552 17.1569 38.2662
RightArm  1.68177 31.296 49.8411
RightForeArm  -0.0562031 8.27297 11.8502
RightHand  -0.24729 -0.0210522 -5.37781
LeftUpLeg  -18.3699 11.5197 6.29924
LeftLeg  12.3137 -3.42255 -1.95372
LeftFoot  1.42769 0.750788 -6.78305
LeftToes  -7.45818e-011 -3.37383e-011 1.08613e-011
461
root  -1.004 39.7132 15.2964 -173.46 -2.98007 179.977
RightUpLeg  -17.7779 0.423776 -6.56933
RightLeg  13.6007 2.83862 -0.8094
RightFoot  -1.00047 -0.517714 5.64051
RightToes  -5.8209e-011 0 -3.6325e-017
Spine  32.5561 -0.257189 7.42993
Spine1  8.26524 1.0771 3.31408
HEad  11.9486 -10.4364 0.0389427
LeftShoulder1  7.06699 -16.8816 -28.5717
LeftArm  0.267517 -35.9218 -71.7891
LeftForeArm  51.7971 5.9868 -3.8465
LeftHand  -0.246645 0.021 5.37786
RightShoulder  9.14035 17.186 38.0884
RightArm  0.706738 32.0738 49.782
RightForeArm  1.50586 6.99491 12.0636
RightHand  -0.24729 -0.0210522 -5.37781
LeftUpLeg  -18.3479 11.4296 6.58525
LeftLeg  12.1296 -3.39168 -1.87323
LeftFoot  1.56325 0.780822 -6.98359
LeftToes  -7.45818e-011 -3.37383e-011 1.08613e-011
462
root  -0.824257 39.7061 15.3143 -173.459 -3.03915 -179.965
RightUpLeg  -17.9353 0.245265 -6.22435
RightLeg  13.8201 2.91213 -0.711739
RightFoot  -1.00974 -0.495687 5.4019
RightToes  -5.8209e-011 0 -3.6325e-017
Spine  32.8686 -0.42495 7.40239
Spine1  8.37867 1.03319 2.76884
HEad  11.7163 -10.4479 0.26268
LeftShoulder1  7.08417 -16.9582 -28.5235
LeftArm  0.0212293 -36.0768 -72.0965
LeftForeArm  50.9125 5.99071 -3.72009
LeftHand  -0.246645 0.021 5.37786
RightShoulder  9.10295 17.1968 37.8917
RightArm  0.0867175 32.9061 49.8476
RightForeArm  2.73937 5.85734 12.2237
RightHand  -0.24729 -0.0210522 -5.37781
LeftUpLeg  -18.3159 11.3944 6.90182
LeftLeg  11.9634 -3.35476 -1.80198
LeftFoot  1.6065 0.804524 -7.17129
LeftToes  -7.45818e-011 -3.37383e-011 1.08613e-011
463
root  -0.656194 39.6998 15.3265 -173.448 -2.9762 -179.85
RightUpLeg  -18.0889 0.226956 -5.84367
RightLeg  13.9767 2.94281 -0.640727
RightFoot  -0.985289 -0.477471 5.19026
RightToes  -5.8209e-011 0 -3.6325e-017
Spine  33.2074 -0.51618 7.44651
Spine1  8.50229 1.10514 2.2363
HEad  11.5232 -10.5427 0.427804
LeftShoulder1  7.12487 -17.0029 -28.6492
LeftArm  -0.44144 -36.233 -72.4104
LeftForeArm  49.2724 6.00051 -3.50931
LeftHand  -0.246645 0.021 5.37786
RightShoulder  9.04595 17.181 37.6581
RightArm  -0.12074 33.6056 49.8787
RightForeArm  3.36503 5.12148 12.3385
RightHand  -0.24729 -0.0210522 -5.37781
LeftUpLeg  -18.3166 11.4487 7.24979
LeftLeg  11.9094 -3.25688 -1.71866
LeftFoot  1.52838 0.811098 -7.26388
LeftToes  -7.45818e-011 -3.37383e-011 1.08613e-011
464
root  -0.515379 39.6872 15.336 -173.421 -2.75542 -179.72
RightUpLeg  -18.3131 0.439883 -5.51524
RightLeg  14.1972 2.87999 -0.585
RightFoot  -0.996799 -0.460615 5.0092
RightToes  -5.8209e-011 0 -3.6325e-017
Spine  33.597 -0.496827 7.52159
Spine1  8.56804 1.30562 1.75324
HEad  11.3446 -10.6916 0.581067
LeftShoulder1  7.18008 -17.0347 -28.8688
LeftArm  -0.960992 -36.44 -72.7424
LeftForeArm  47.2257 6.01692 -3.2869
LeftHand  -0.246645 0.021 5.37786
RightShoulder  8.9879 17.16 37.4295
RightArm  -0.214835 34.1591 49.824
RightForeArm  3.71722 4.63283 12.4155
RightHand  -0.24729 -0.0210522 -5.37781
LeftUpLeg  -18.4006 11.6073 7.56096
LeftLeg  12.051 -3.14264 -1.61198
LeftFoot  1.40346 0.813439 -7.34118
LeftToes  -7.45818e-011 -3.37383e-011 1.08613e-011
465
root  -0.415304 39.6623 15.3485 -173.407 -2.45146 -179.658
RightUpLeg  -18.6202 0.73014 -5.34865
RightLeg  14.5932 2.8345 -0.484507
RightFoot  -1.10291 -0.442385 4.85015
RightToes  -5.8209e-011 0 -3.6325e-017
Spine  34.0544 -0.456646 7.55254
Spine1  8.54772 1.49909 1.34486
HEad  11.1851 -10.7451 0.68004
LeftShoulder1  7.24441 -17.0878 -29.0955
LeftArm  -1.41519 -36.6189 -72.9298
LeftForeArm  45.1971 6.04115 -3.13145
LeftHand  -0.246645 0.021 5.37786
RightShoulder  8.96562 17.1634 37.3179
RightArm  -0.417927 34.7225 49.7559
RightForeArm  4.36157 4.08129 12.4477
RightHand  -0.24729 -0.0210522 -5.37781
LeftUpLeg  -18.5403 11.8351 7.7433
LeftLeg  12.3563 -3.11096 -1.50899
LeftFoot  1.32015 0.822434 -7.48062
LeftToes  -7.45818e-011 -3.37383e-011 1.08613e-011
466
root  -0.35624 39.6332 15.3629 -173.444 -2.15967 -179.676
RightUpLeg  -18.9024 0.974096 -5.34395
RightLeg  15.0611 2.87196 -0.33525
RightFoot  -1.25719 -0.425463 4.72143
RightToes  -5.8209e-011 0 -3.6325e-017
Spine  34.5687 -0.473305 7.50968
Spine1  8.49632 1.58026 1.05302
HEad  11.022 -10.6108 0.667061
LeftShoulder1  7.30108 -17.1561 -29.256
LeftArm  -1.83265 -36.7305 -73.0108
LeftForeArm  43.5683 6.05714 -2.99882
LeftHand  -0.246645 0.021 5.37786
RightShoulder  8.98069 17.1885 37.337
RightArm  -0.660377 35.3873 49.7549
RightForeArm  5.54875 3.39553 12.4402
RightHand  -0.24729 -0.0210522 -5.37781
LeftUpLeg  -18.6396 12.1315 7.79568
LeftLeg  12.6822 -3.22908 -1.47243
LeftFoot  1.31261 0.835109 -7.59725
LeftToes  -7.45818e-011 -3.37383e-011 1.08613e-011
467
root  -0.325333 39.6136 15.3717 -173.509 -1.89925 -179.726
RightUpLeg  -19.0865 1.27516 -5.41657
RightLeg  15.4283 2.83982 -0.229683
RightFoot  -1.37103 -0.412827 4.62284
RightToes  -5.8209e-011 0 -3.6325e-017
Spine  35.0724 -0.510283 7.42159
Spine1  8.49874 1.59848 0.879475
HEad  10.843 -10.4246 0.634549
LeftShoulder1  7.31342 -17.2073 -29.2269
LeftArm  -2.23492 -36.8972 -73.2876
LeftForeArm  42.5067 6.04684 -2.7956
LeftHand  -0.246645 0.021 5.37786
RightShoulder  8.99276 17.2075 37.3547
RightArm  -0.793875 36.0251 49.8544
RightForeArm  6.95496 2.78953 12.4057
RightHand  -0.24729 -0.0210522 -5.37781
LeftUpLeg  -18.6368 12.5027 7.79416
LeftLeg  12.8816 -3.4374 -1.52714
LeftFoot  1.36753 0.841832 -7.62741
LeftToes  -7.45818e-011 -3.37383e-011 1.08613e-011
